<svg xmlns="http://www.w3.org/2000/svg" viewBox="0 0 50 50"><title>instagram-black</title><path d="M25 4.516c6.67 0 7.467.025 10.102.145a13.782 13.782 0 0 1 4.643.861 8.284 8.284 0 0 1 4.744 4.744 13.85 13.85 0 0 1 .862 4.643c.12 2.635.144 3.427.144 10.102s-.025 7.467-.144 10.102a13.85 13.85 0 0 1-.862 4.644 8.284 8.284 0 0 1-4.744 4.743 13.854 13.854 0 0 1-4.643.862c-2.635.12-3.427.144-10.102.144s-7.467-.025-10.102-.144a13.854 13.854 0 0 1-4.643-.862 8.284 8.284 0 0 1-4.744-4.743 13.85 13.85 0 0 1-.862-4.644c-.12-2.635-.144-3.427-.144-10.102s.025-7.467.144-10.102a13.85 13.85 0 0 1 .862-4.643 8.284 8.284 0 0 1 4.744-4.744 13.782 13.782 0 0 1 4.643-.861c2.635-.12 3.427-.145 10.102-.145M25 0c-6.79 0-7.642.028-10.307.15a18.253 18.253 0 0 0-6.07 1.162 12.783 12.783 0 0 0-7.311 7.311 18.255 18.255 0 0 0-1.162 6.07C.028 17.358 0 18.21 0 25s.028 7.642.15 10.307a18.255 18.255 0 0 0 1.162 6.07 12.783 12.783 0 0 0 7.311 7.311 18.398 18.398 0 0 0 6.07 1.162c2.665.122 3.518.15 10.307.15s7.642-.028 10.307-.15a18.398 18.398 0 0 0 6.07-1.162 12.8 12.8 0 0 0 7.311-7.311 18.255 18.255 0 0 0 1.162-6.07C49.972 32.642 50 31.79 50 25s-.028-7.642-.15-10.307a18.255 18.255 0 0 0-1.162-6.07 12.8 12.8 0 0 0-7.311-7.311A18.253 18.253 0 0 0 35.307.15C32.642.04 31.79 0 25 0zm0 12.161A12.839 12.839 0 1 0 37.839 25 12.839 12.839 0 0 0 25 12.172zm0 21.187a8.337 8.337 0 1 1 8.337-8.337A8.337 8.337 0 0 1 25 33.348zm16.346-21.676a2.999 2.999 0 1 1 0-.006z"/></svg>