<svg xmlns="http://www.w3.org/2000/svg" width="18" height="18" viewBox="0 0 18 18"><defs><style>.cls-1{fill:#fff;fill-rule:evenodd}</style></defs><path id="Instagram_Icon" data-name="Instagram Icon" class="cls-1" d="M539 136.625c2.4 0 2.687.009 3.635.052a4.959 4.959 0 0 1 1.671.31 2.981 2.981 0 0 1 1.707 1.707 4.985 4.985 0 0 1 .31 1.671c.043.948.052 1.233.052 3.635s-.009 2.687-.052 3.635a4.985 4.985 0 0 1-.31 1.671 2.981 2.981 0 0 1-1.707 1.707 4.985 4.985 0 0 1-1.671.31c-.948.043-1.233.052-3.635.052s-2.687-.009-3.635-.052a4.985 4.985 0 0 1-1.671-.31 2.981 2.981 0 0 1-1.707-1.707 4.985 4.985 0 0 1-.31-1.671c-.043-.948-.052-1.233-.052-3.635s.009-2.687.052-3.635a4.985 4.985 0 0 1 .31-1.671 2.981 2.981 0 0 1 1.707-1.707 4.959 4.959 0 0 1 1.671-.31c.948-.043 1.233-.052 3.635-.052m0-1.625c-2.443 0-2.75.01-3.709.054a6.568 6.568 0 0 0-2.184.418 4.6 4.6 0 0 0-2.631 2.631 6.568 6.568 0 0 0-.418 2.184c-.044.959-.054 1.266-.054 3.709s.01 2.75.054 3.709a6.568 6.568 0 0 0 .418 2.184 4.6 4.6 0 0 0 2.631 2.631 6.62 6.62 0 0 0 2.184.418c.959.044 1.266.054 3.709.054s2.75-.01 3.709-.054a6.62 6.62 0 0 0 2.184-.418 4.606 4.606 0 0 0 2.631-2.631 6.568 6.568 0 0 0 .418-2.184c.044-.959.054-1.266.054-3.709s-.01-2.75-.054-3.709a6.568 6.568 0 0 0-.418-2.184 4.606 4.606 0 0 0-2.631-2.631 6.568 6.568 0 0 0-2.184-.418c-.959-.04-1.266-.054-3.709-.054zm0 4.376a4.62 4.62 0 1 0 4.62 4.62 4.62 4.62 0 0 0-4.62-4.616zm0 7.624a3 3 0 1 1 3-3 3 3 0 0 1-3 3zm5.882-7.8a1.08 1.08 0 1 1-1.08-1.08 1.079 1.079 0 0 1 1.08 1.08z" transform="translate(-530 -135)"/></svg>