<svg xmlns="http://www.w3.org/2000/svg" viewBox="0 0 50 50"><path fill="#6A6A6A" d="M31.746 1.974A12.275 12.275 0 0 1 42.164.601a11.54 11.54 0 0 1 7.69 9.097 12.838 12.838 0 0 1-3.626 10.829c-2.605 2.635-5.237 5.24-7.853 7.864a33.412 33.412 0 0 1-3.74 3.468 12.547 12.547 0 0 1-11.332 1.753 10.836 10.836 0 0 1-4.487-2.93 3.153 3.153 0 0 1 3.95-4.746c.57.297.978.818 1.516 1.163a5.75 5.75 0 0 0 5.423.329 7.148 7.148 0 0 0 2.27-1.578q4.821-4.824 9.644-9.647a6.752 6.752 0 0 0 2.056-4.454 5.245 5.245 0 0 0-.966-3.268 5.101 5.101 0 0 0-3.963-2.146 6.244 6.244 0 0 0-3.82 1.111 10.023 10.023 0 0 0-1.58 1.378l-5.132 5.13a7.352 7.352 0 0 0-3.163-1.285 10.709 10.709 0 0 0-3.387-.174 3.183 3.183 0 0 0-1.577.622c2.858-2.827 5.689-5.683 8.537-8.52a16.438 16.438 0 0 1 3.122-2.623zM13.492 19.728q-4.025 4.026-8.052 8.051c-.82.827-1.666 1.63-2.423 2.516a13.684 13.684 0 0 0-1.77 2.784 11.99 11.99 0 0 0-.222 10.167 11.526 11.526 0 0 0 8.055 6.488 12.502 12.502 0 0 0 10.059-2.323 26.918 26.918 0 0 0 2.877-2.66c2.635-2.626 5.252-5.27 7.899-7.884a3.078 3.078 0 0 1-1.503.618 10.71 10.71 0 0 1-3.527-.17 7.335 7.335 0 0 1-3.106-1.271q-2.715 2.71-5.427 5.424a7.652 7.652 0 0 1-2.162 1.583 5.69 5.69 0 0 1-5.106.026 5.139 5.139 0 0 1-2.616-3.394A5.997 5.997 0 0 1 7.33 35.1a12.1 12.1 0 0 1 1.885-2.154l8.805-8.804a7.158 7.158 0 0 1 2.345-1.606 5.794 5.794 0 0 1 5.043.17 7.263 7.263 0 0 1 1.292.986 3.136 3.136 0 0 0 2.989.584 3.156 3.156 0 0 0 1.881-4.35 4.934 4.934 0 0 0-1.394-1.588 11.331 11.331 0 0 0-2.7-1.654 12.3 12.3 0 0 0-10.119.28 13.587 13.587 0 0 0-3.865 2.764z"/></svg>