<svg xmlns="http://www.w3.org/2000/svg" viewBox="0 0 50 50"><defs><style>.cls-1{fill:#6a6a6a}</style></defs><title>mail</title><path class="cls-1" d="M3.333 6.65A3.15 3.15 0 0 0 .137 9.751q-.001.096.003.19l19.757 18.174a8.5 8.5 0 0 0 10 0l20-18.07a3.27 3.27 0 0 0-3.141-3.394 3.286 3.286 0 0 0-.09-.003zM0 13.342l10.06 9.93-6.773 15.94 9.733-12.447 6.25 5s7.197 3.48 11.113.103l6.217-5.193 10.1 13.333-6.84-16.643L50 13.343v26.876a3.423 3.423 0 0 1-3.647 3.124H3.437A3.637 3.637 0 0 1 0 40.009z"/></svg>