<svg xmlns="http://www.w3.org/2000/svg" viewBox="0 0 50 50"><defs><style>.cls-1{fill:#fff}</style></defs><title>medium</title><path class="cls-1" d="M49.839 11.771l-.031-.022h-.017L34.71 4.31a1.652 1.652 0 0 0-.317-.111 1.614 1.614 0 0 0-.414-.056 1.731 1.731 0 0 0-1.464.786l-8.683 13.918 10.9 17.468 15.156-24.3a.181.181 0 0 0-.049-.244zm-30.788 3.89v15.834l14.281 7.059zM35.471 39.6l11.751 5.8c1.528.753 2.778.225 2.778-1.181V16.336zm-18.89-27.815L1.858 4.521a1.714 1.714 0 0 0-.747-.192 1.141 1.141 0 0 0-1.1 1.317V37.02A2.706 2.706 0 0 0 1.4 39.229l12.973 6.389a2.114 2.114 0 0 0 .933.239 1.428 1.428 0 0 0 1.369-1.485 1.4 1.4 0 0 0-.013-.143v-32.28a.161.161 0 0 0-.092-.156z"/></svg>