<svg xmlns="http://www.w3.org/2000/svg" width="18" height="18" viewBox="0 0 18 18"><defs><style>.cls-1{fill:#fff;fill-rule:evenodd}</style></defs><path id="Medium_Icon" data-name="Medium Icon" class="cls-1" d="M577.942 139.736l-.011-.008h-.006l-5.429-2.678a.594.594 0 0 0-.114-.04.581.581 0 0 0-.149-.02.623.623 0 0 0-.527.283l-3.126 5.01 3.922 6.288 5.456-8.746a.065.065 0 0 0-.016-.089zm-11.083 1.4v5.7l5.141 2.541zm5.911 8.619l4.23 2.087c.55.271 1 .081 1-.425v-10.038zm-6.8-10.014l-5.3-2.615a.617.617 0 0 0-.269-.069.411.411 0 0 0-.395.474v11.294a.974.974 0 0 0 .5.795l4.67 2.3a.761.761 0 0 0 .336.086.514.514 0 0 0 .488-.586V139.8a.058.058 0 0 0-.033-.056z" transform="translate(-560 -135.5)"/></svg>