<svg xmlns="http://www.w3.org/2000/svg" viewBox="0 0 50 50"><title>medium-black</title><path d="M49.839 11.771l-.03-.022h-.017L34.71 4.31a1.652 1.652 0 0 0-.316-.11 1.614 1.614 0 0 0-.414-.056 1.73 1.73 0 0 0-1.464.786l-8.684 13.918 10.895 17.468 15.156-24.296a.18.18 0 0 0-.044-.248zm-30.788 3.89v15.834l14.281 7.059zm16.42 23.943L47.222 45.4c1.528.753 2.778.225 2.778-1.18V16.336zm-18.89-27.819L1.858 4.521a1.714 1.714 0 0 0-.747-.192A1.141 1.141 0 0 0 .014 5.646V37.02a2.706 2.706 0 0 0 1.389 2.209l12.973 6.389a2.114 2.114 0 0 0 .933.239 1.428 1.428 0 0 0 1.369-1.485 1.396 1.396 0 0 0-.013-.143v-32.28a.161.161 0 0 0-.092-.155z"/></svg>