<svg xmlns="http://www.w3.org/2000/svg" viewBox="0 0 50 50"><path fill="#6A6A6A" d="M39.76 30.77l1.68 1.68a1.057 1.057 0 0 1 0 1.547L25.773 49.664a1.057 1.057 0 0 1-1.546 0L8.56 33.997a1.057 1.057 0 0 1 0-1.547l1.68-1.68a1.057 1.057 0 0 1 1.547 0L25 43.981l13.213-13.213a1.057 1.057 0 0 1 1.546 0zM25.772.335L41.44 16.003a1.057 1.057 0 0 1 0 1.547l-1.68 1.68a1.057 1.057 0 0 1-1.547 0L25 6.019 11.787 19.231a1.057 1.057 0 0 1-1.546 0L8.56 17.55a1.057 1.057 0 0 1 0-1.547L24.227.336a1.057 1.057 0 0 1 1.546 0z"/></svg>