<svg xmlns="http://www.w3.org/2000/svg" viewBox="0 0 50 50"><path fill="#019875" d="M0 41.258a17.41 17.41 0 0 0 14.704-4.603 10.285 10.285 0 0 1-8.911-7.033 11.317 11.317 0 0 0 4.284-.133 11.578 11.578 0 0 1-7.292-10.757 8.406 8.406 0 0 0 3.943 1.152A9.844 9.844 0 0 1 4.056 6.822a24.415 24.415 0 0 0 20.15 9.954S22.87 9.2 29.017 5.68a10.662 10.662 0 0 1 12.968 1.623 19.028 19.028 0 0 0 6.142-2.3 8.2 8.2 0 0 1-3.606 5.271A11.852 11.852 0 0 0 50 9.327a19.403 19.403 0 0 1-6.298 4.994s5.138 19.44-12.185 27.924A32.738 32.738 0 0 1 0 41.258z"/></svg>