<svg xmlns="http://www.w3.org/2000/svg" viewBox="0 0 50 50"><defs><style>.cls-1{fill:#fff}</style></defs><title>twitter</title><path class="cls-1" d="M0 41.258a17.409 17.409 0 0 0 14.7-4.6 10.285 10.285 0 0 1-8.911-7.033 11.317 11.317 0 0 0 4.284-.133 11.578 11.578 0 0 1-7.288-10.76 8.406 8.406 0 0 0 3.942 1.151A9.844 9.844 0 0 1 4.056 6.822a24.415 24.415 0 0 0 20.15 9.955S22.869 9.2 29.017 5.679A10.662 10.662 0 0 1 41.985 7.3 19.028 19.028 0 0 0 48.127 5a8.2 8.2 0 0 1-3.607 5.271A11.852 11.852 0 0 0 50 9.327a19.4 19.4 0 0 1-6.3 4.994s5.138 19.44-12.185 27.924A32.738 32.738 0 0 1 0 41.258z"/></svg>