<svg xmlns="http://www.w3.org/2000/svg" viewBox="0 0 50 50"><defs><style>.cls-1{fill:#fff;}</style></defs><title>instagram</title><path class="cls-1" d="M25,4.516c6.66967,0,7.46721.025,10.1017.14451a13.78226,13.78226,0,0,1,4.64377.86148,8.28431,8.28431,0,0,1,4.74367,4.74376,13.85011,13.85011,0,0,1,.86148,4.64373c.11958,2.63449.14451,3.42652.14451,10.10166s-.02493,7.46717-.14451,10.10166a13.85011,13.85011,0,0,1-.86148,4.64373,8.28431,8.28431,0,0,1-4.74367,4.74376,13.8537,13.8537,0,0,1-4.64377.86148c-2.63449.1195-3.42643.14451-10.1017.14451s-7.46721-.025-10.1017-.14451a13.8537,13.8537,0,0,1-4.64377-.86148A8.28431,8.28431,0,0,1,5.51085,39.7565a13.85011,13.85011,0,0,1-.86148-4.64373c-.11958-2.63449-.14451-3.42652-.14451-10.10166s.02493-7.46717.14451-10.10166a13.85011,13.85011,0,0,1,.86148-4.64373A8.28431,8.28431,0,0,1,10.25453,5.522a13.78226,13.78226,0,0,1,4.64377-.86148C17.53279,4.541,18.32473,4.516,25,4.516M25,.00008c-6.78908,0-7.64226.02777-10.30728.15007a18.25324,18.25324,0,0,0-6.0694,1.16162,12.78338,12.78338,0,0,0-7.3115,7.31155A18.25461,18.25461,0,0,0,.15011,14.69268C.02782,17.35774,0,18.21092,0,25s.02782,7.64226.15011,10.30732a18.25461,18.25461,0,0,0,1.16171,6.06936,12.78338,12.78338,0,0,0,7.3115,7.31155,18.398,18.398,0,0,0,6.0694,1.16162c2.665.12229,3.51819.15007,10.30728.15007s7.64226-.02777,10.30728-.15007a18.398,18.398,0,0,0,6.0694-1.16162,12.79989,12.79989,0,0,0,7.3115-7.31155,18.25461,18.25461,0,0,0,1.16171-6.06936C49.97218,32.64226,50,31.78908,50,25s-.02782-7.64226-.15011-10.30732a18.25461,18.25461,0,0,0-1.16171-6.06936,12.79989,12.79989,0,0,0-7.3115-7.31155A18.25324,18.25324,0,0,0,35.30728.15015C32.64226.039,31.78908.00008,25,.00008ZM25,12.161A12.839,12.839,0,1,0,37.839,25v0A12.839,12.839,0,0,0,25,12.17213Zm0,21.1871a8.337,8.337,0,1,1,8.337-8.337A8.337,8.337,0,0,1,25,33.34812ZM41.34615,11.67189a2.99853,2.99853,0,1,1,0-.0056Z"/></svg>