<svg xmlns="http://www.w3.org/2000/svg" width="18" height="18" viewBox="0 0 18 18">
  <metadata><?xpacket begin="﻿" id="W5M0MpCehiHzreSzNTczkc9d"?>
<x:xmpmeta xmlns:x="adobe:ns:meta/" x:xmptk="Adobe XMP Core 5.6-c138 79.159824, 2016/09/14-01:09:01        ">
   <rdf:RDF xmlns:rdf="http://www.w3.org/1999/02/22-rdf-syntax-ns#">
      <rdf:Description rdf:about=""/>
   </rdf:RDF>
</x:xmpmeta>
                                                                                                    
                                                                                                    
                                                                                                    
                                                                                                    
                                                                                                    
                                                                                                    
                                                                                                    
                                                                                                    
                                                                                                    
                                                                                                    
                                                                                                    
                                                                                                    
                                                                                                    
                                                                                                    
                                                                                                    
                                                                                                    
                                                                                                    
                                                                                                    
                                                                                                    
                                                                                                    
                           
<?xpacket end="w"?></metadata>
<defs>
    <style>
      .cls-1 {
        fill: #fff;
        fill-rule: evenodd;
      }
    </style>
  </defs>
  <path id="Instagram_Icon" data-name="Instagram Icon" class="cls-1" d="M539,136.625c2.4,0,2.687.009,3.635,0.052a4.959,4.959,0,0,1,1.671.31,2.981,2.981,0,0,1,1.707,1.707,4.985,4.985,0,0,1,.31,1.671c0.043,0.948.052,1.233,0.052,3.635s-0.009,2.687-.052,3.635a4.985,4.985,0,0,1-.31,1.671,2.981,2.981,0,0,1-1.707,1.707,4.985,4.985,0,0,1-1.671.31c-0.948.043-1.233,0.052-3.635,0.052s-2.687-.009-3.635-0.052a4.985,4.985,0,0,1-1.671-.31,2.981,2.981,0,0,1-1.707-1.707,4.985,4.985,0,0,1-.31-1.671c-0.043-.948-0.052-1.233-0.052-3.635s0.009-2.687.052-3.635a4.985,4.985,0,0,1,.31-1.671,2.981,2.981,0,0,1,1.707-1.707,4.959,4.959,0,0,1,1.671-.31c0.948-.043,1.233-0.052,3.635-0.052M539,135c-2.443,0-2.75.01-3.709,0.054a6.568,6.568,0,0,0-2.184.418,4.6,4.6,0,0,0-2.631,2.631,6.568,6.568,0,0,0-.418,2.184c-0.044.959-.054,1.266-0.054,3.709s0.01,2.75.054,3.709a6.568,6.568,0,0,0,.418,2.184,4.6,4.6,0,0,0,2.631,2.631,6.62,6.62,0,0,0,2.184.418c0.959,0.044,1.266.054,3.709,0.054s2.75-.01,3.709-0.054a6.62,6.62,0,0,0,2.184-.418,4.606,4.606,0,0,0,2.631-2.631,6.568,6.568,0,0,0,.418-2.184c0.044-.959.054-1.266,0.054-3.709s-0.01-2.75-.054-3.709a6.568,6.568,0,0,0-.418-2.184,4.606,4.606,0,0,0-2.631-2.631,6.568,6.568,0,0,0-2.184-.418C541.75,135.014,541.443,135,539,135h0Zm0,4.376a4.62,4.62,0,1,0,4.62,4.62A4.62,4.62,0,0,0,539,139.38ZM539,147a3,3,0,1,1,3-3A3,3,0,0,1,539,147Zm5.882-7.8a1.08,1.08,0,1,1-1.08-1.08A1.079,1.079,0,0,1,544.882,139.2Z" transform="translate(-530 -135)"/>
</svg>
