<svg xmlns="http://www.w3.org/2000/svg" viewBox="0 0 50 50"><defs><style>.cls-1{fill:#fff;}</style></defs><title>instagram</title><path class="cls-1" d="M25,4.516c6.67,0,7.467.025,10.1.145a13.782,13.782,0,0,1,4.644.861,8.284,8.284,0,0,1,4.744,4.744,13.85,13.85,0,0,1,.861,4.644c.12,2.634.145,3.427.145,10.1s-.025,7.467-.145,10.1a13.85,13.85,0,0,1-.861,4.644A8.284,8.284,0,0,1,39.745,44.5a13.854,13.854,0,0,1-4.644.861c-2.634.119-3.426.145-10.1.145s-7.467-.025-10.1-.145a13.854,13.854,0,0,1-4.644-.861,8.284,8.284,0,0,1-4.744-4.744,13.85,13.85,0,0,1-.861-4.644c-.12-2.634-.145-3.427-.145-10.1s.025-7.467.145-10.1a13.85,13.85,0,0,1,.861-4.644,8.284,8.284,0,0,1,4.744-4.744A13.782,13.782,0,0,1,14.9,4.66c2.634-.119,3.426-.145,10.1-.145M25,0c-6.789,0-7.642.028-10.307.15A18.253,18.253,0,0,0,8.623,1.312,12.783,12.783,0,0,0,1.312,8.623,18.255,18.255,0,0,0,.15,14.693C.028,17.358,0,18.211,0,25s.028,7.642.15,10.307a18.255,18.255,0,0,0,1.162,6.069,12.783,12.783,0,0,0,7.312,7.312,18.4,18.4,0,0,0,6.069,1.162c2.665.122,3.518.15,10.307.15s7.642-.028,10.307-.15a18.4,18.4,0,0,0,6.069-1.162,12.8,12.8,0,0,0,7.312-7.312,18.255,18.255,0,0,0,1.162-6.069C49.972,32.642,50,31.789,50,25s-.028-7.642-.15-10.307a18.255,18.255,0,0,0-1.162-6.069,12.8,12.8,0,0,0-7.312-7.312A18.253,18.253,0,0,0,35.307.15C32.642.039,31.789,0,25,0Zm0,12.161A12.839,12.839,0,1,0,37.839,25h0A12.839,12.839,0,0,0,25,12.172Zm0,21.187a8.337,8.337,0,1,1,8.337-8.337A8.337,8.337,0,0,1,25,33.348ZM41.346,11.672a3,3,0,1,1,0-.006Z"/></svg>