<svg xmlns="http://www.w3.org/2000/svg" viewBox="0 0 50 50"><path fill="#6A6A6A" d="M31.74593,1.974A12.27512,12.27512,0,0,1,42.1642.6008a11.53962,11.53962,0,0,1,7.68963,9.09745A12.83809,12.83809,0,0,1,46.2285,20.52681c-2.60507,2.63472-5.23781,5.24077-7.85375,7.86461a33.412,33.412,0,0,1-3.739,3.46716A12.54678,12.54678,0,0,1,23.303,33.61242a10.83581,10.83581,0,0,1-4.48743-2.93131,3.15266,3.15266,0,0,1,3.9506-4.74546c.57044.29758.97776.81859,1.51558,1.16362a5.74917,5.74917,0,0,0,5.42367.32823,7.14806,7.14806,0,0,0,2.26992-1.57786q4.82109-4.82408,9.64317-9.64615a6.75228,6.75228,0,0,0,2.05637-4.45481,5.24476,5.24476,0,0,0-.9659-3.26745A5.10109,5.10109,0,0,0,38.74648,6.3349a6.24381,6.24381,0,0,0-3.82109,1.11123,10.02306,10.02306,0,0,0-1.57984,1.37816q-2.56553,2.564-5.132,5.12906a7.35188,7.35188,0,0,0-3.16266-1.28424,10.70891,10.70891,0,0,0-3.38707-.174,3.18331,3.18331,0,0,0-1.57688.62185c2.85815-2.82652,5.68862-5.68269,8.53689-8.52009A16.43812,16.43812,0,0,1,31.74593,1.974ZM13.49171,19.728Q9.467,23.75422,5.44024,27.77946c-.81958.8265-1.66586,1.62927-2.42315,2.51509a13.68351,13.68351,0,0,0-1.76967,2.784A11.98935,11.98935,0,0,0,1.025,43.24572a11.52649,11.52649,0,0,0,8.05543,6.48843,12.50217,12.50217,0,0,0,10.0584-2.3233,26.91821,26.91821,0,0,0,2.87694-2.66043C24.65146,42.1246,27.26839,39.481,29.915,36.867a3.07821,3.07821,0,0,1-1.50273.6179,10.7094,10.7094,0,0,1-3.52746-.17,7.33468,7.33468,0,0,1-3.10531-1.27139q-2.7153,2.71085-5.42763,5.42466A7.65186,7.65186,0,0,1,14.18969,43.051a5.69079,5.69079,0,0,1-5.10533.0257,5.13892,5.13892,0,0,1-2.61594-3.394,5.99694,5.99694,0,0,1,.86111-4.58233,12.10025,12.10025,0,0,1,1.88533-2.15425q4.40291-4.40291,8.80481-8.80382a7.15829,7.15829,0,0,1,2.34506-1.60654,5.79417,5.79417,0,0,1,5.043.171,7.26334,7.26334,0,0,1,1.29215.98568,3.13562,3.13562,0,0,0,2.98865.58329A3.15574,3.15574,0,0,0,31.57,19.9267,4.93435,4.93435,0,0,0,30.176,18.338a11.33111,11.33111,0,0,0-2.7-1.654,12.30061,12.30061,0,0,0-10.11871.28077A13.58726,13.58726,0,0,0,13.49171,19.728Z"/></svg>
