<svg xmlns="http://www.w3.org/2000/svg" viewBox="0 0 50 50"><path fill="#6A6A6A" d="M3.33333,6.64939a3.14988,3.14988,0,0,0-3.19621,3.103Q.1356,9.84755.14,9.94274L19.89665,28.11606a8.5,8.5,0,0,0,10,0l20-18.07A3.27008,3.27008,0,0,0,46.756,6.65163c-.0297-.00117-.05961-.00188-.08931-.00224ZM0,13.34271l10.06,9.93-6.77327,15.94L13.02,26.76607l6.25,5s7.19666,3.48,11.11328.10335L36.59993,26.676,46.7,40.00937,39.86,23.36605,50,13.34271V40.21938a3.42336,3.42336,0,0,1-3.64665,3.12332H3.43669A3.63681,3.63681,0,0,1,0,40.00937Z"/></svg>
