<svg xmlns="http://www.w3.org/2000/svg" viewBox="0 0 50 50"><defs><style>.cls-1{fill:#6a6a6a;}</style></defs><title>mail</title><path class="cls-1" d="M3.33333,6.64938a3.14988,3.14988,0,0,0-3.19621,3.103Q.1356,9.84762.14,9.94274L19.89665,28.11606a8.5,8.5,0,0,0,10,0l20-18.07A3.27,3.27,0,0,0,46.756,6.65162c-.0297-.00112-.05961-.00193-.08931-.00224ZM0,13.3427l10.06,9.93L3.28674,39.21265,13.02,26.766l6.25,5s7.19666,3.48,11.11328.10335L36.59993,26.676,46.7,40.00937,39.86,23.366,50,13.3427V40.21933a3.42329,3.42329,0,0,1-3.64665,3.12337H3.43669A3.63685,3.63685,0,0,1,0,40.00937Z"/></svg>