<svg xmlns="http://www.w3.org/2000/svg" viewBox="0 0 50 50"><path d="M49.83892,11.77139l-.03052-.02221h-.01662L34.71024,4.30984a1.65213,1.65213,0,0,0-.31672-.1111,1.61371,1.61371,0,0,0-.41388-.05557,1.73065,1.73065,0,0,0-1.46392.78617L23.83191,18.84687,34.727,36.31462l15.15649-24.296A.1806.1806,0,0,0,49.83892,11.77139ZM19.05086,15.66051V31.49483l14.28143,7.05882ZM35.47136,39.60369,47.222,45.40129c1.52784.75281,2.778.225,2.778-1.18064V16.33559Zm-18.89-27.81839L1.85821,4.52094A1.71385,1.71385,0,0,0,1.111,4.32926,1.14112,1.14112,0,0,0,.01365,5.646V37.02021a2.70566,2.70566,0,0,0,1.389,2.20847l12.973,6.3893a2.11387,2.11387,0,0,0,.93339.2389,1.42786,1.42786,0,0,0,1.36863-1.48473,1.3964,1.3964,0,0,0-.01306-.14314V11.94921a.1611.1611,0,0,0-.09173-.15556Z"/></svg>
