<svg xmlns="http://www.w3.org/2000/svg" width="18" height="18" viewBox="0 0 18 18">
  <metadata><?xpacket begin="﻿" id="W5M0MpCehiHzreSzNTczkc9d"?>
<x:xmpmeta xmlns:x="adobe:ns:meta/" x:xmptk="Adobe XMP Core 5.6-c138 79.159824, 2016/09/14-01:09:01        ">
   <rdf:RDF xmlns:rdf="http://www.w3.org/1999/02/22-rdf-syntax-ns#">
      <rdf:Description rdf:about=""/>
   </rdf:RDF>
</x:xmpmeta>
                                                                                                    
                                                                                                    
                                                                                                    
                                                                                                    
                                                                                                    
                                                                                                    
                                                                                                    
                                                                                                    
                                                                                                    
                                                                                                    
                                                                                                    
                                                                                                    
                                                                                                    
                                                                                                    
                                                                                                    
                                                                                                    
                                                                                                    
                                                                                                    
                                                                                                    
                                                                                                    
                           
<?xpacket end="w"?></metadata>
<defs>
    <style>
      .cls-1 {
        fill: #fff;
        fill-rule: evenodd;
      }
    </style>
  </defs>
  <path id="Medium_Icon" data-name="Medium Icon" class="cls-1" d="M577.942,139.736l-0.011-.008-0.006,0-5.429-2.678a0.594,0.594,0,0,0-.114-0.04,0.581,0.581,0,0,0-.149-0.02,0.623,0.623,0,0,0-.527.283l-3.126,5.01,3.922,6.288,5.456-8.746A0.065,0.065,0,0,0,577.942,139.736Zm-11.083,1.4v5.7L572,149.377Zm5.911,8.619,4.23,2.087c0.55,0.271,1,.081,1-0.425V141.379Zm-6.8-10.014-5.3-2.615a0.617,0.617,0,0,0-.269-0.069,0.411,0.411,0,0,0-.395.474v11.294a0.974,0.974,0,0,0,.5.795l4.67,2.3a0.761,0.761,0,0,0,.336.086A0.514,0.514,0,0,0,566,151.42V139.8A0.058,0.058,0,0,0,565.967,139.744Z" transform="translate(-560 -135.5)"/>
</svg>
