<svg xmlns="http://www.w3.org/2000/svg" viewBox="0 0 50 50"><defs><style>.cls-1{fill:#6a6a6a;}</style></defs><title>phone</title><path class="cls-1" d="M34.26323,31.62465s-.3423,1.75643-.45207,2.00823c-.26466.91694-.36477.56178-.72007.47138a31.9866,31.9866,0,0,1-12.14646-6.593l1.08169,1.08164s-5.61476-7.1225-6.0215-12.19479c-.04513-.565-.46487-.113.30348-.43586.47788-.20342,2.40537-.99769,2.40537-.99769L10.90026.69688l-1.43345.64573S-1.811,3.20235.25209,10.77366L2.46374,15.465A89.96464,89.96464,0,0,0,33.82732,46.27323l5.20151,2.72826c7.10319,2.2149,10.06388-8.49471,10.06388-8.49471L50,37.6397Z"/></svg>