<svg xmlns="http://www.w3.org/2000/svg" viewBox="0 0 50 50"><path fill="#6A6A6A" d="M39.75928,30.76923l1.681,1.681a1.05736,1.05736,0,0,1,0,1.54653l-15.667,15.667a1.05736,1.05736,0,0,1-1.54653,0l-15.667-15.667a1.05736,1.05736,0,0,1,0-1.54653l1.681-1.681a1.05736,1.05736,0,0,1,1.54653,0L25,43.982,38.21275,30.76923a1.05736,1.05736,0,0,1,1.54653,0ZM25.77327.3362l15.667,15.667a1.05736,1.05736,0,0,1,0,1.54653l-1.681,1.681a1.05736,1.05736,0,0,1-1.54653,0L25,6.018,11.78725,19.23077a1.05736,1.05736,0,0,1-1.54653,0l-1.681-1.681a1.05736,1.05736,0,0,1,0-1.54653L24.22673.3362a1.05736,1.05736,0,0,1,1.54653,0Z"/></svg>
