<svg xmlns="http://www.w3.org/2000/svg" width="18" height="18" viewBox="0 0 18 18">
  <metadata><?xpacket begin="﻿" id="W5M0MpCehiHzreSzNTczkc9d"?>
<x:xmpmeta xmlns:x="adobe:ns:meta/" x:xmptk="Adobe XMP Core 5.6-c138 79.159824, 2016/09/14-01:09:01        ">
   <rdf:RDF xmlns:rdf="http://www.w3.org/1999/02/22-rdf-syntax-ns#">
      <rdf:Description rdf:about=""/>
   </rdf:RDF>
</x:xmpmeta>
                                                                                                    
                                                                                                    
                                                                                                    
                                                                                                    
                                                                                                    
                                                                                                    
                                                                                                    
                                                                                                    
                                                                                                    
                                                                                                    
                                                                                                    
                                                                                                    
                                                                                                    
                                                                                                    
                                                                                                    
                                                                                                    
                                                                                                    
                                                                                                    
                                                                                                    
                                                                                                    
                           
<?xpacket end="w"?></metadata>
<defs>
    <style>
      .cls-1 {
        fill: #fff;
        fill-rule: evenodd;
      }
    </style>
  </defs>
  <path id="Twitter_icon" data-name="Twitter icon" class="cls-1" d="M499.989,150.364a6.275,6.275,0,0,0,5.3-1.659,3.707,3.707,0,0,1-3.212-2.535,4.079,4.079,0,0,0,1.544-.048,4.173,4.173,0,0,1-2.628-3.877,3.03,3.03,0,0,0,1.421.415,3.548,3.548,0,0,1-.963-4.708,8.8,8.8,0,0,0,7.263,3.588s-0.482-2.731,1.734-4a3.843,3.843,0,0,1,4.674.585,6.858,6.858,0,0,0,2.214-.829,2.956,2.956,0,0,1-1.3,1.9,4.272,4.272,0,0,0,1.975-.341,6.994,6.994,0,0,1-2.27,1.8s1.852,7.007-4.392,10.065A11.8,11.8,0,0,1,499.989,150.364Z" transform="translate(-500 -135.5)"/>
</svg>
