<svg xmlns="http://www.w3.org/2000/svg" viewBox="0 0 50 50"><path fill="#019875" d="M0,41.25766A17.40935,17.40935,0,0,0,14.70424,36.655a10.28461,10.28461,0,0,1-8.91136-7.03309,11.31692,11.31692,0,0,0,4.28368-.13318A11.57758,11.57758,0,0,1,2.78548,18.73237a8.40643,8.40643,0,0,0,3.94238,1.15135A9.84353,9.84353,0,0,1,4.05609,6.82191a24.41467,24.41467,0,0,0,20.1504,9.95451S22.86925,9.19955,29.01731,5.67885a10.662,10.662,0,0,1,12.96754,1.623,19.02774,19.02774,0,0,0,6.14247-2.3,8.2007,8.2007,0,0,1-3.60667,5.27133A11.85183,11.85183,0,0,0,50,9.32718a19.40345,19.40345,0,0,1-6.29792,4.99391S48.84022,33.76127,31.517,42.24535A32.73782,32.73782,0,0,1,0,41.25766Z"/></svg>
