<svg xmlns="http://www.w3.org/2000/svg" viewBox="0 0 199 60"><path fill="#FFF" d="M74.278 17.4v-.831h1.165V8.516h-1.165v-.833h3.276v.833H76.4v8.052h1.152v.832h-3.274zm10.538 0H83.9v-3.552c0-1.4-.713-2.1-1.755-2.1a2.025 2.025 0 0 0-2.045 2.008V17.4h-.9v-6.329h.9v.417c0 .208-.014.4-.028.6a2.615 2.615 0 0 1 2.153-1.152c1.576 0 2.589.972 2.589 2.915V17.4zm2.467 0v-5.5h-1.1v-.829h1.1V8.378h.959v2.693h1.1v.829h-1.1v5.5zm8.977-2.9h-5.085a2.22 2.22 0 0 0 2.259 2.18h.016a2.434 2.434 0 0 0 2.1-1.083l.672.569a3.309 3.309 0 1 1-2.878-5.266 2.871 2.871 0 0 1 2.919 3.11v.49zm-5.071-.736H95.3a1.963 1.963 0 0 0-1.9-2.026h-.061a2.125 2.125 0 0 0-2.15 2.026zm7.427 3.636h-.9v-6.33h.9v.417a2.191 2.191 0 0 1-.013.292 1.978 1.978 0 0 1 1.7-.861v.861a1.873 1.873 0 0 0-1.686 2V17.4zm8.689 0h-.918v-3.552c0-1.4-.713-2.1-1.754-2.1a2.026 2.026 0 0 0-2.043 2.009V17.4h-.9v-6.329h.9v.417c0 .208-.013.4-.027.6a2.612 2.612 0 0 1 2.152-1.152c1.576 0 2.59.972 2.59 2.915V17.4zm7.5 0a1.2 1.2 0 0 1-1.26-1.1 2.932 2.932 0 0 1-2.536 1.236c-2.9 0-2.947-3.665.027-3.971a6.982 6.982 0 0 1 2.509.222v-.43a1.584 1.584 0 0 0-1.745-1.637 2.125 2.125 0 0 0-1.713.875l-.727-.569a2.933 2.933 0 0 1 2.44-1.194 2.4 2.4 0 0 1 2.618 2.527v2.749a.362.362 0 0 0 .383.389h.124v.9h-.125zm-1.26-2.874a8.109 8.109 0 0 0-2.413-.167c-1.7.194-1.946 2.333 0 2.333a2.309 2.309 0 0 0 2.409-2.165zm3.3 2.874v-5.5h-1.1v-.829h1.1V8.378h.955v2.693h1.1v.829h-1.1v5.5h-.955zm3.905-8.746a.791.791 0 1 1-.781.8v-.01a.8.8 0 0 1 .779-.791zm-.48 8.746v-6.33h.96v6.33h-.96zm2.468-3.179a3.169 3.169 0 1 1 3.162 3.319 3.24 3.24 0 0 1-3.167-3.311v-.006zm5.4 0a2.247 2.247 0 1 0-4.468 0 2.285 2.285 0 0 0 2.076 2.477q.079.007.158.008a2.253 2.253 0 0 0 2.243-2.263q0-.111-.012-.221zM136.2 17.4h-.919v-3.552c0-1.4-.713-2.1-1.754-2.1a2.025 2.025 0 0 0-2.042 2.008V17.4h-.905v-6.329h.905v.417c0 .208-.014.4-.027.6a2.611 2.611 0 0 1 2.151-1.152c1.576 0 2.591.972 2.591 2.915V17.4zm7.5 0a1.2 1.2 0 0 1-1.261-1.1 2.931 2.931 0 0 1-2.536 1.236c-2.9 0-2.946-3.665.028-3.971a6.979 6.979 0 0 1 2.508.222v-.43a1.584 1.584 0 0 0-1.739-1.637 2.126 2.126 0 0 0-1.713.875l-.726-.569a2.931 2.931 0 0 1 2.439-1.194 2.4 2.4 0 0 1 2.618 2.527v2.749a.362.362 0 0 0 .384.389h.123v.9h-.13zm-1.261-2.874a8.1 8.1 0 0 0-2.412-.167c-1.7.194-1.946 2.333 0 2.333a2.308 2.308 0 0 0 2.4-2.165zm2.751 2.874V6.989h.959V17.4h-.959zm13.293 0h-.959v-2.636l-3.755-5.178a1.821 1.821 0 0 1-.247-.375c0 .028.028.278.028.472V17.4h-.959V7.683h1.027l3.682 5.137c.123.181.233.389.246.4 0-.028-.027-.264-.027-.486V7.683h.959V17.4zm7.88-2.9h-5.084a2.219 2.219 0 0 0 2.257 2.18h.018a2.434 2.434 0 0 0 2.1-1.083l.671.569a3.309 3.309 0 1 1-2.878-5.262 2.87 2.87 0 0 1 2.919 3.11v.486zm-5.071-.736h4.108a1.964 1.964 0 0 0-1.9-2.026h-.06a2.125 2.125 0 0 0-2.155 2.026zm7.072 3.637V11.9h-1.1v-.829h1.1V8.378h.959v2.693h1.1v.829h-1.1v5.5h-.959zm4.961 0L171 11.071h1.029l1.74 4.956 1.891-4.956h.754l1.741 4.956 1.891-4.956h1.041l-2.466 6.329h-.921l-1.686-4.637-1.778 4.637h-.918zm8.5-3.179a3.169 3.169 0 1 1 3.165 3.318 3.24 3.24 0 0 1-3.176-3.3v-.015zm5.4 0a2.247 2.247 0 1 0-4.468 0 2.285 2.285 0 0 0 2.076 2.477q.079.007.158.008a2.254 2.254 0 0 0 2.234-2.273q0-.106-.012-.212zm3.344 3.179h-.9v-6.33h.9v.417a2.038 2.038 0 0 1-.014.292 1.979 1.979 0 0 1 1.7-.861v.861a1.872 1.872 0 0 0-1.686 2v3.62zm7.4 0l-2.5-3.388-.877 1.027v2.36h-.959V6.989h.959v6.747l2.371-2.693H198l-1.9 2.235L199 17.4h-1.042zM74.141 30.882a3.169 3.169 0 1 1 3.165 3.318 3.24 3.24 0 0 1-3.165-3.313zm5.4 0a2.262 2.262 0 1 0 .011.207q-.001-.104-.011-.207zm8.059 3.179h-.917v-3.554c0-1.4-.713-2.1-1.755-2.1a2.025 2.025 0 0 0-2.042 2.008v3.642h-.9V27.73h.9v.416c0 .208-.014.4-.028.6a2.614 2.614 0 0 1 2.152-1.152c1.577 0 2.59.972 2.59 2.915v3.552zm11.238 0h-4.8v-9.718H95v8.746h3.837v.972zm6.51-2.9h-5.085a2.22 2.22 0 0 0 2.259 2.18h.016a2.435 2.435 0 0 0 2.1-1.083l.672.569a3.309 3.309 0 1 1-2.879-5.262 2.871 2.871 0 0 1 2.92 3.11v.486zm-5.071-.736h4.111a1.964 1.964 0 0 0-1.9-2.026h-.06a2.126 2.126 0 0 0-2.151 2.026zm9.264-2.832a2.761 2.761 0 0 1 1.6.514l.973-1.041.672.68-1.014.972a2.822 2.822 0 0 1-2.234 4.512 2.744 2.744 0 0 1-1.576-.472c-.63.611-.63 1.847.287 1.847.631 0 1.563-.361 2.481-.361a1.847 1.847 0 0 1 2.007 1.671q.007.074.008.148c0 1.222-1.083 2.277-3.125 2.277-2.782 0-3.892-1.916-2.659-3.415a1.9 1.9 0 0 1 .507-2.569 2.856 2.856 0 0 1-.753-1.944 2.811 2.811 0 0 1 2.8-2.82h.024zM107.5 35.3c-.644.819.068 2.138 2.124 2.138 1.563 0 2.193-.694 2.193-1.374a.982.982 0 0 0-1.083-1c-.74 0-1.507.375-2.481.375a1.978 1.978 0 0 1-.753-.139zm2.042-2.832a2.062 2.062 0 1 0-1.885-2.225q-.007.085-.007.17a1.952 1.952 0 0 0 1.849 2.049h.04zm10.059 1.6a1.2 1.2 0 0 1-1.261-1.1 2.929 2.929 0 0 1-2.54 1.232c-2.906 0-2.947-3.665.027-3.971a6.979 6.979 0 0 1 2.508.222v-.43a1.584 1.584 0 0 0-1.741-1.638 2.126 2.126 0 0 0-1.713.874l-.726-.569a2.933 2.933 0 0 1 2.439-1.194 2.4 2.4 0 0 1 2.618 2.527v2.749a.362.362 0 0 0 .384.389h.123v.9h-.119zm-1.261-2.874a8.1 8.1 0 0 0-2.412-.167c-1.7.195-1.946 2.333 0 2.333a2.307 2.307 0 0 0 2.409-2.173zm2.754 2.874v-10.42h.959v10.413h-.959zm11.375-3.1H129.3l-.932 3.1h-1.042l3.1-9.718h.918l3.1 9.718h-1.027zm-2.919-.833h2.673l-1.1-3.623a7.418 7.418 0 0 1-.233-.916c-.014.042-.137.541-.247.916zm8.62-1.236a.948.948 0 0 0-.905-.5.78.78 0 0 0-.808.75v.069c0 .514.6.833 1.274 1.152.85.4 1.782.944 1.782 1.985a1.864 1.864 0 0 1-2.1 1.847 2.632 2.632 0 0 1-2.357-1.4l.822-.389a1.77 1.77 0 0 0 1.535.986 1 1 0 0 0 1.152-.972 1.5 1.5 0 0 0-1.1-1.166c-.9-.4-1.946-.874-1.946-2a1.655 1.655 0 0 1 1.641-1.669h.113a1.781 1.781 0 0 1 1.658.916zm5.591 0a.948.948 0 0 0-.9-.5.781.781 0 0 0-.809.751v.068c0 .514.6.833 1.275 1.152.849.4 1.781.944 1.781 1.985A1.864 1.864 0 0 1 143 34.2a2.632 2.632 0 0 1-2.357-1.4l.823-.389A1.767 1.767 0 0 0 143 33.4a1 1 0 0 0 1.151-.972 1.5 1.5 0 0 0-1.1-1.166c-.9-.4-1.946-.874-1.946-2a1.655 1.655 0 0 1 1.641-1.669h.113a1.783 1.783 0 0 1 1.659.916zm3.508-3.582a.791.791 0 1 1-.781.8v-.01a.8.8 0 0 1 .778-.793zm-.48 8.747V27.73h.959v6.331h-.959zm5.441-5.164a.947.947 0 0 0-.9-.5.78.78 0 0 0-.808.75v.069c0 .514.6.833 1.275 1.152.849.4 1.781.944 1.781 1.985a1.864 1.864 0 0 1-2.1 1.847 2.633 2.633 0 0 1-2.358-1.4l.822-.389a1.771 1.771 0 0 0 1.536.986 1 1 0 0 0 1.151-.972 1.5 1.5 0 0 0-1.1-1.166c-.9-.4-1.946-.874-1.946-2a1.655 1.655 0 0 1 1.641-1.669h.113a1.781 1.781 0 0 1 1.658.916zm3.577 5.165v-5.5h-1.1v-.835h1.1v-2.693h.959v2.693h1.1v.833h-1.1v5.5h-.959zm9 0a1.2 1.2 0 0 1-1.261-1.1 2.93 2.93 0 0 1-2.535 1.236c-2.906 0-2.947-3.665.027-3.971a6.979 6.979 0 0 1 2.508.222v-.43a1.584 1.584 0 0 0-1.741-1.638 2.127 2.127 0 0 0-1.713.874l-.726-.569a2.933 2.933 0 0 1 2.439-1.194 2.4 2.4 0 0 1 2.618 2.527v2.748a.362.362 0 0 0 .384.389h.123v.9h-.123zm-1.261-2.874a8.1 8.1 0 0 0-2.412-.167c-1.7.195-1.946 2.333 0 2.333a2.308 2.308 0 0 0 2.413-2.169zm8.373 2.874H171v-3.558c0-1.4-.713-2.1-1.754-2.1a2.025 2.025 0 0 0-2.042 2.008v3.642h-.9V27.73h.9v.416c0 .208-.014.4-.028.6a2.614 2.614 0 0 1 2.152-1.152c1.576 0 2.59.972 2.59 2.915v3.554zm7.25-1.065a2.994 2.994 0 0 1-2.44 1.208 3.322 3.322 0 0 1 0-6.636 3.1 3.1 0 0 1 2.3 1.041l-.589.611a2.221 2.221 0 0 0-1.714-.819 2.5 2.5 0 0 0 0 4.971 2.077 2.077 0 0 0 1.8-.93zm7.03-1.833h-5.084a2.219 2.219 0 0 0 2.257 2.18h.018a2.435 2.435 0 0 0 2.1-1.083l.671.569a3.309 3.309 0 1 1-2.878-5.262 2.871 2.871 0 0 1 2.919 3.11v.486zm-5.071-.736h4.111a1.963 1.963 0 0 0-1.9-2.026h-.061a2.126 2.126 0 0 0-2.151 2.025zM75.1 50.72v-5.5H74v-.831h1.1V41.7h.96v2.694h1.1v.833h-1.1v5.5h-.96zm3.015-3.179a3.169 3.169 0 1 1 3.165 3.318 3.241 3.241 0 0 1-3.165-3.315zm5.4 0a2.262 2.262 0 1 0 .011.207q-.001-.104-.011-.207zm6.961 3.179V41h2.782a2.759 2.759 0 0 1 2.988 2.888 2.721 2.721 0 0 1-1.658 2.624L96.4 50.72h-1.042l-1.713-3.971a3.511 3.511 0 0 1-.384.014h-1.822v3.957h-.963zm2.782-4.873a1.8 1.8 0 0 0 2.029-1.958 1.823 1.823 0 0 0-2.029-1.971h-1.822v3.929zm9.922 1.971H98.1A2.22 2.22 0 0 0 100.357 50h.014a2.435 2.435 0 0 0 2.1-1.083l.672.569a3.309 3.309 0 1 1-2.879-5.262 2.871 2.871 0 0 1 2.919 3.11v.486zm-5.07-.736h4.111a1.964 1.964 0 0 0-1.9-2.026h-.06a2.125 2.125 0 0 0-2.151 2.028zm10.031-5.582a1.153 1.153 0 0 0-.973-.541 1.185 1.185 0 0 0-1.137 1.416v2.013h1.562v.833h-1.562v5.5h-.946v-5.5h-1.055v-.832h1.055V42.4a2.059 2.059 0 0 1 2.015-2.3 1.909 1.909 0 0 1 1.713.861zm5.454 2.888h.9v6.332h-.9v-.42a4.063 4.063 0 0 1 .028-.583 2.619 2.619 0 0 1-2.152 1.138c-1.576 0-2.59-.972-2.59-2.915v-3.551h.919v3.554c0 1.4.713 2.1 1.754 2.1a2.027 2.027 0 0 0 2.044-2.01v-3.645zm5.564-.139a2.764 2.764 0 0 1 1.6.513l.973-1.041.671.68-1.013.972a2.823 2.823 0 0 1-2.235 4.512 2.747 2.747 0 0 1-1.576-.472c-.63.611-.63 1.847.288 1.847.631 0 1.562-.361 2.48-.361a1.848 1.848 0 0 1 2.008 1.672q.007.073.008.147c0 1.222-1.083 2.277-3.126 2.277-2.781 0-3.891-1.916-2.659-3.415a1.9 1.9 0 0 1 .508-2.569 2.857 2.857 0 0 1-.754-1.944 2.811 2.811 0 0 1 2.806-2.816h.021zm-2.042 7.7c-.644.819.069 2.138 2.124 2.138 1.563 0 2.193-.694 2.193-1.374a.982.982 0 0 0-1.083-1c-.739 0-1.507.375-2.48.375a1.982 1.982 0 0 1-.754-.132zm2.042-2.832a2.062 2.062 0 1 0-1.884-2.226q-.007.085-.007.171a1.952 1.952 0 0 0 1.839 2.059h.052zm10.169-1.305h-5.085A2.22 2.22 0 0 0 126.494 50h.024a2.432 2.432 0 0 0 2.1-1.083l.672.569a3.309 3.309 0 1 1-2.879-5.262 2.871 2.871 0 0 1 2.92 3.11v.486zm-5.071-.736h4.111a1.963 1.963 0 0 0-1.9-2.026h-.062a2.125 2.125 0 0 0-2.151 2.034zm12.074.736h-5.085A2.22 2.22 0 0 0 133.5 50h.024a2.435 2.435 0 0 0 2.1-1.083l.672.569a3.309 3.309 0 1 1-2.878-5.262 2.871 2.871 0 0 1 2.919 3.11v.486zm-5.071-.736h4.111a1.963 1.963 0 0 0-1.9-2.026h-.061a2.126 2.126 0 0 0-2.152 2.034zm9.086-1.527a.948.948 0 0 0-.9-.5.78.78 0 0 0-.808.75v.069c0 .513.6.833 1.274 1.152.85.4 1.782.944 1.782 1.985a1.864 1.864 0 0 1-2.1 1.847 2.632 2.632 0 0 1-2.357-1.4l.822-.389a1.77 1.77 0 0 0 1.535.986 1 1 0 0 0 1.152-.972 1.5 1.5 0 0 0-1.1-1.166c-.905-.4-1.946-.875-1.946-2a1.655 1.655 0 0 1 1.641-1.669h.113a1.781 1.781 0 0 1 1.658.916zM66.991 60h-1V0h1zM44.815 44.989H42.97v-4.034h1.845a1.858 1.858 0 0 1 2.052 2.024 1.834 1.834 0 0 1-2.052 2.01zM60.007.014V60H0V.014zm-18 21h4.983v-1h-3.983V11h-1zm-30.022 0h3v-.858H13.93v-8.298h1.055V11h-3v.859h1.068v8.294h-1.068zm6 28.978l-3.039-9.977h-.9l-3.038 9.977h1.022l.914-3.178h3.106l.926 3.178zm15-24.975h-.976V30.2c0 .229.028.472.028.5-.014-.013-.126-.228-.251-.413l-3.749-5.274h-1.046v9.977h.976v-7.924c0-.2-.028-.456-.028-.485a1.876 1.876 0 0 0 .251.385l3.819 5.316v2.708h.976zM48 49.984l-1.841-4.318a2.979 2.979 0 0 0-1.344-5.659H42v9.982l.01-.006h.97v-4.062h1.845a3.5 3.5 0 0 0 .388-.014l1.733 4.077zm-33.5-8.69c-.014.043-.135.556-.242.941l-1.076 3.72h2.622l-1.076-3.72a7.808 7.808 0 0 1-.228-.941z"/></svg>